<?xml version="1.0" standalone="no"?>
<!DOCTYPE svg PUBLIC "-//W3C//DTD SVG 20010904//EN"
 "http://www.w3.org/TR/2001/REC-SVG-20010904/DTD/svg10.dtd">
<svg version="1.0" xmlns="http://www.w3.org/2000/svg"
 width="512.000000pt" height="512.000000pt" viewBox="0 0 512.000000 512.000000"
 preserveAspectRatio="xMidYMid meet">
<metadata>
Created by potrace 1.11, written by Peter Selinger 2001-2013
</metadata>
<g transform="translate(0.000000,512.000000) scale(0.100000,-0.100000)"
fill="#000000" stroke="none">
<path d="M4546 4653 c-225 -46 -425 -173 -544 -345 l-31 -45 -118 58 c-176 88
-291 114 -498 114 -214 0 -357 -34 -547 -130 -288 -145 -464 -338 -733 -805
-43 -74 -102 -182 -133 -240 -30 -58 -74 -141 -97 -185 -23 -44 -68 -129 -100
-190 -118 -226 -189 -361 -205 -390 -9 -16 -45 -82 -80 -145 -180 -329 -431
-726 -567 -900 -288 -369 -502 -573 -794 -760 -90 -57 -109 -89 -90 -149 6
-22 22 -46 36 -55 70 -46 624 -41 900 8 50 9 142 26 160 30 189 40 291 68 460
123 130 43 319 114 393 148 29 14 55 25 58 25 18 0 355 176 464 243 36 22 79
48 96 57 140 80 503 341 645 464 19 17 62 54 94 81 124 106 166 146 355 335
107 107 238 245 289 305 52 61 99 115 106 120 33 30 150 182 194 253 231 371
260 805 79 1165 l-29 58 22 32 c137 199 381 282 612 208 79 -25 113 -22 148
15 23 25 24 31 26 205 l2 179 -27 30 c-69 76 -360 120 -546 83z"/>
</g>
</svg>
